<svg width="190" height="76" viewBox="0 0 190 76" xmlns="http://www.w3.org/2000/svg"><title>Combined Shape</title><path d="M0 4.006A4 4 0 0 1 3.99 0h182.02A3.993 3.993 0 0 1 190 4.006v67.988A4 4 0 0 1 186.01 76H3.99A3.993 3.993 0 0 1 0 71.994V4.006zm20.6 12.298V62h9.409V31.408h.128L49.145 62h10.048V16.304h-9.408V46.96h-.128L30.585 16.304H20.6zm45.44 23.04c0 3.328.512 6.432 1.536 9.312 1.024 2.88 2.496 5.387 4.416 7.52 1.92 2.133 4.278 3.808 7.072 5.024 2.795 1.216 5.942 1.824 9.44 1.824 3.542 0 6.699-.608 9.472-1.824 2.774-1.216 5.12-2.89 7.04-5.024 1.92-2.133 3.392-4.64 4.416-7.52 1.024-2.88 1.536-5.984 1.536-9.312 0-3.413-.512-6.581-1.536-9.504-1.024-2.923-2.496-5.472-4.416-7.648-1.92-2.176-4.266-3.883-7.04-5.12-2.773-1.237-5.93-1.856-9.472-1.856-3.498 0-6.645.619-9.44 1.856-2.794 1.237-5.152 2.944-7.072 5.12s-3.392 4.725-4.416 7.648c-1.024 2.923-1.536 6.09-1.536 9.504zM161.336 62l12.288-45.696h-9.856l-7.488 31.488h-.128l-7.808-31.488h-9.408L131 47.408h-.128l-7.232-31.104h-10.048L125.688 62h10.176l7.616-31.104h.128L151.352 62h9.984zM76.088 39.344c0-2.005.224-3.947.672-5.824.448-1.877 1.163-3.552 2.144-5.024a10.876 10.876 0 0 1 3.84-3.52c1.579-.875 3.499-1.312 5.76-1.312 2.262 0 4.182.437 5.76 1.312a10.876 10.876 0 0 1 3.84 3.52c.982 1.472 1.696 3.147 2.144 5.024.448 1.877.672 3.819.672 5.824 0 1.92-.224 3.787-.672 5.6-.448 1.813-1.162 3.445-2.144 4.896-.981 1.45-2.261 2.613-3.84 3.488-1.578.875-3.498 1.312-5.76 1.312-2.261 0-4.181-.437-5.76-1.312-1.578-.875-2.858-2.037-3.84-3.488-.981-1.45-1.696-3.083-2.144-4.896a23.261 23.261 0 0 1-.672-5.6z" fill="#FFF" fill-rule="evenodd"/></svg>