<?xml version="1.0" encoding="UTF-8"?>
<svg width="190px" height="76px" viewBox="0 0 190 76" version="1.1" xmlns="http://www.w3.org/2000/svg" xmlns:xlink="http://www.w3.org/1999/xlink">
    <!-- Generator: Sketch 40.2 (33826) - http://www.bohemiancoding.com/sketch -->
    <title>Combined Shape</title>
    <desc>Created with Sketch.</desc>
    <defs></defs>
    <g id="Symbols" stroke="none" stroke-width="1" fill="none" fill-rule="evenodd">
        <g id="main-text" transform="translate(-64.000000, -280.000000)" fill="#FFFFFF">
            <path d="M64,284.005718 C64,281.793421 65.7894639,280 67.9903108,280 L250.009689,280 C252.213477,280 254,281.785183 254,284.005718 L254,351.994282 C254,354.206579 252.210536,356 250.009689,356 L67.9903108,356 C65.786523,356 64,354.214817 64,351.994282 L64,284.005718 Z M84.6009143,296.304 L84.6009143,342 L94.0089143,342 L94.0089143,311.408 L94.1369143,311.408 L113.144914,342 L123.192914,342 L123.192914,296.304 L113.784914,296.304 L113.784914,326.96 L113.656914,326.96 L94.5849143,296.304 L84.6009143,296.304 Z M130.040305,319.344 C130.040305,322.672017 130.5523,325.775986 131.576305,328.656 C132.60031,331.536014 134.072295,334.042656 135.992305,336.176 C137.912314,338.309344 140.269624,339.983994 143.064305,341.2 C145.858985,342.416006 149.005621,343.024 152.504305,343.024 C156.045656,343.024 159.202958,342.416006 161.976305,341.2 C164.749652,339.983994 167.096295,338.309344 169.016305,336.176 C170.936314,334.042656 172.4083,331.536014 173.432305,328.656 C174.45631,325.775986 174.968305,322.672017 174.968305,319.344 C174.968305,315.93065 174.45631,312.762681 173.432305,309.84 C172.4083,306.917319 170.936314,304.368011 169.016305,302.192 C167.096295,300.015989 164.749652,298.30934 161.976305,297.072 C159.202958,295.83466 156.045656,295.216 152.504305,295.216 C149.005621,295.216 145.858985,295.83466 143.064305,297.072 C140.269624,298.30934 137.912314,300.015989 135.992305,302.192 C134.072295,304.368011 132.60031,306.917319 131.576305,309.84 C130.5523,312.762681 130.040305,315.93065 130.040305,319.344 Z M225.335695,342 L237.623695,296.304 L227.767695,296.304 L220.279695,327.792 L220.151695,327.792 L212.343695,296.304 L202.935695,296.304 L194.999695,327.408 L194.871695,327.408 L187.639695,296.304 L177.591695,296.304 L189.687695,342 L199.863695,342 L207.479695,310.896 L207.607695,310.896 L215.351695,342 L225.335695,342 Z M140.088305,319.344 C140.088305,317.338657 140.312303,315.397343 140.760305,313.52 C141.208307,311.642657 141.922967,309.968007 142.904305,308.496 C143.885643,307.023993 145.16563,305.850671 146.744305,304.976 C148.322979,304.101329 150.24296,303.664 152.504305,303.664 C154.765649,303.664 156.68563,304.101329 158.264305,304.976 C159.842979,305.850671 161.122967,307.023993 162.104305,308.496 C163.085643,309.968007 163.800303,311.642657 164.248305,313.52 C164.696307,315.397343 164.920305,317.338657 164.920305,319.344 C164.920305,321.26401 164.696307,323.130658 164.248305,324.944 C163.800303,326.757342 163.085643,328.389326 162.104305,329.84 C161.122967,331.290674 159.842979,332.453329 158.264305,333.328 C156.68563,334.202671 154.765649,334.64 152.504305,334.64 C150.24296,334.64 148.322979,334.202671 146.744305,333.328 C145.16563,332.453329 143.885643,331.290674 142.904305,329.84 C141.922967,328.389326 141.208307,326.757342 140.760305,324.944 C140.312303,323.130658 140.088305,321.26401 140.088305,319.344 Z" id="Combined-Shape"></path>
        </g>
    </g>
</svg>