<?xml version="1.0" standalone="no"?>
<!DOCTYPE svg PUBLIC "-//W3C//DTD SVG 20010904//EN"
 "http://www.w3.org/TR/2001/REC-SVG-20010904/DTD/svg10.dtd">
<svg version="1.0" xmlns="http://www.w3.org/2000/svg"
 width="700.000000pt" height="700.000000pt" viewBox="0 0 700.000000 700.000000"
 preserveAspectRatio="xMidYMid meet">
<metadata>
Created by potrace 1.11, written by Peter Selinger 2001-2013
</metadata>
<g transform="translate(0.000000,700.000000) scale(0.100000,-0.100000)"
fill="#000000" stroke="none">
<path d="M790 6990 c-113 -11 -194 -36 -305 -90 -224 -111 -391 -319 -457
-570 l-22 -85 -3 -2027 -4 -2028 3501 0 3501 0 -4 2028 -3 2027 -22 83 c-87
328 -334 570 -662 648 -71 17 -212 18 -2760 20 -1477 1 -2719 -2 -2760 -6z"/>
<path d="M2 1243 c4 -489 5 -511 26 -588 85 -306 300 -526 609 -622 l88 -28
2730 -3 c1832 -2 2752 1 2797 8 187 28 347 109 484 245 136 134 206 263 245
450 17 81 19 139 19 568 l0 477 -3501 0 -3500 0 3 -507z"/>
</g>
</svg>
