<?xml version="1.0" standalone="no"?>
<!DOCTYPE svg PUBLIC "-//W3C//DTD SVG 20010904//EN"
 "http://www.w3.org/TR/2001/REC-SVG-20010904/DTD/svg10.dtd">
<svg version="1.0" xmlns="http://www.w3.org/2000/svg"
 width="700.000000pt" height="700.000000pt" viewBox="0 0 700.000000 700.000000"
 preserveAspectRatio="xMidYMid meet">
<metadata>
Created by potrace 1.11, written by Peter Selinger 2001-2013
</metadata>
<g transform="translate(0.000000,700.000000) scale(0.100000,-0.100000)"
fill="#000000" stroke="none">
<path d="M1390 3395 l0 -2525 493 2 492 3 5 1774 5 1774 290 -503 c160 -277
619 -1076 1021 -1774 l731 -1271 529 0 529 0 0 2520 0 2520 -492 3 -493 2 0
-1757 0 -1758 -323 565 c-177 311 -628 1102 -1002 1758 l-679 1192 -553 0
-553 0 0 -2525z"/>
</g>
</svg>
